{"title":"Cuban Fury 2014 DVD9rip English Klam","uid":10504584,"size":1904336319,"categoryP":"video","categoryS":"movies","magnet":"?xt=urn:btih:bb8c728757df98ee90f5b2ceb0b8669a28d01a10&amp;dn=Cuban+Fury+2014+DVD9rip+English+Klam&amp;tr=udp%3A%2F%2Ftracker.openbittorrent.com%3A80&amp;tr=udp%3A%2F%2Fopen.demonii.com%3A1337&amp;tr=udp%3A%2F%2Ftracker.coppersurfer.tk%3A6969&amp;tr=udp%3A%2F%2Fexodus.desync.com%3A6969","seeders":1,"leechers":0,"uploader":"Klambake","files":-1,"time":1404742023,"description":"With: Nick Frost, Rashida Jones and Ian McShane\n\n1987. Een 13-jarige geboren danser werkt zichzelf op om de Junior Salsa kampioenschappen te winnen. Maar een incident in de grillige Londense straten berooft hem van zijn zelfvertrouwen waardoor zijn leven een hele andere wending krijgt. 22 jaar later zit Bruce Garerett in een neerwaartse spiraal van zelfmedelijden en repressie. Alleen Julia, zijn nieuwe, slimme, knappe en grappige Amerikaanse baas geeft hem een reden om te leven. Maar ze is onaantastbaar en onbereikbaar voor hem. Bruce weet echter niet dat Julia zo haar eigen problemen heeft.\n\nBeneath Bruce Garrett's under-confident, overweight exterior, the passionate heart of a salsa king lies dormant. Now, one woman is about to reignite his Latin fire.\n &lt;a href=&quot;\nhttp://www.imdb.com/title/tt2390237&quot; rel=&quot;nofollow&quot; target=&quot;_NEW&quot;&gt;\nhttp://www.imdb.com/title/tt2390237&lt;/a&gt;\t\n\n--------------------- Dutch Friends 4ever ---------------------\n---------------------------------------------------------------\n- Bezoek ook eens mijn vrienden op: &lt;a href=&quot; http://www.Film-Test.nl&quot; rel=&quot;nofollow&quot; target=&quot;_NEW&quot;&gt; http://www.Film-Test.nl&lt;/a&gt; --\n----- voor mijn Nederlandse Sync. ondertitels ---- en meer ----\n------- http://www.Film-Test.nl ---- Over Films en meer -------\n---------------------------------------------------------------\n\nGeneral:\n\nComplete name                            : Cuban FuryCuban Fury.avi\nFormat                                   : AVI\nFormat/Info                              : Audio Video Interleave\nFile size                                : 1.77 GiB\nDuration                                 : 1h 37mn\nOverall bit rate                         : 2 594 Kbps\n\nVideo:\n\nFormat                                   : MPEG-4 Visual\nFormat profile                           : Simple@L3\nFormat settings, BVOP                    : No\nFormat settings, QPel                    : No\nFormat settings, GMC                     : No warppoints\nFormat settings, Matrix                  : Default (H.263)\nCodec ID                                 : XVID\nCodec ID/Hint                            : XviD\nDuration                                 : 1h 37mn\nBit rate                                 : 2 135 Kbps\nWidth                                    : 704 pixels\nHeight                                   : 396 pixels\nDisplay aspect ratio                     : 16:9\nFrame rate                               : 25.000 fps\nColor space                              : YUV\nChroma subsampling                       : 4:2:0\nBit depth                                : 8 bits\nScan type                                : Progressive\nCompression mode                         : Lossy\nBits/(Pixel*Frame)                       : 0.306\nStream size                              : 1.46 GiB (82%)\nWriting library                          : XviD 1.1.2 (UTC 2006-11-01)\n\nAudio:\n\nFormat                                   : AC-3\nFormat/Info                              : Audio Coding 3\nMode extension                           : CM (complete main)\nFormat settings, Endianness              : Big\nCodec ID                                 : 2000\nDuration                                 : 1h 37mn\nSource duration                          : 1h 37mn\nBit rate mode                            : Constant\nBit rate                                 : 448 Kbps\nChannel(s)                               : 6 channels\nChannel positions                        : Front: L C R, Side: L R, LFE\nSampling rate                            : 48.0 KHz\nBit depth                                : 16 bits\nCompression mode                         : Lossy\nStream size                              : 314 MiB (17%)\nAlignment                                : Aligned on interleaves\nInterleave, duration                     : 32 ms (0.80 video frame)\n","torrent":{"xt":"urn:btih:bb8c728757df98ee90f5b2ceb0b8669a28d01a10","amp;dn":"Cuban+Fury+2014+DVD9rip+English+Klam","amp;tr":["udp%3A%2F%2Ftracker.openbittorrent.com%3A80","udp%3A%2F%2Fopen.demonii.com%3A1337","udp%3A%2F%2Ftracker.coppersurfer.tk%3A6969","udp%3A%2F%2Fexodus.desync.com%3A6969"],"infoHash":"bb8c728757df98ee90f5b2ceb0b8669a28d01a10","infoHashBuffer":{"type":"Buffer","data":[187,140,114,135,87,223,152,238,144,245,178,206,176,184,102,154,40,208,26,16]},"announce":[],"urlList":[]}}